<svg width="118" height="24" viewBox="0 0 118 24" fill="none" xmlns="http://www.w3.org/2000/svg">
<path d="M0.0170454 0.545454H4.56818L9.375 12.2727H9.57955L14.3864 0.545454H18.9375V18H15.358V6.6392H15.2131L10.696 17.9148H8.25852L3.74148 6.59659H3.59659V18H0.0170454V0.545454ZM27.8757 18.2557C26.5291 18.2557 25.37 17.983 24.3984 17.4375C23.4325 16.8864 22.6882 16.108 22.1655 15.1023C21.6428 14.0909 21.3814 12.8949 21.3814 11.5142C21.3814 10.1676 21.6428 8.9858 22.1655 7.96875C22.6882 6.9517 23.424 6.15909 24.3729 5.59091C25.3274 5.02273 26.4467 4.73864 27.7308 4.73864C28.5945 4.73864 29.3984 4.87784 30.1428 5.15625C30.8928 5.42898 31.5462 5.84091 32.103 6.39205C32.6655 6.94318 33.103 7.63636 33.4155 8.47159C33.728 9.30114 33.8842 10.2727 33.8842 11.3864V12.3835H22.8303V10.1335H30.4666C30.4666 9.6108 30.353 9.14773 30.1257 8.74432C29.8984 8.34091 29.5831 8.02557 29.1797 7.7983C28.782 7.56534 28.3189 7.44886 27.7905 7.44886C27.2393 7.44886 26.7507 7.5767 26.3246 7.83239C25.9041 8.08239 25.5746 8.42045 25.3359 8.84659C25.0973 9.26705 24.9751 9.7358 24.9695 10.2528V12.392C24.9695 13.0398 25.0888 13.5994 25.3274 14.071C25.5717 14.5426 25.9155 14.9062 26.3587 15.1619C26.8018 15.4176 27.3274 15.5455 27.9354 15.5455C28.3388 15.5455 28.7081 15.4886 29.0433 15.375C29.3786 15.2614 29.6655 15.0909 29.9041 14.8636C30.1428 14.6364 30.3246 14.358 30.4496 14.0284L33.8075 14.25C33.6371 15.0568 33.2876 15.7614 32.7592 16.3636C32.2365 16.9602 31.5604 17.4261 30.7308 17.7614C29.907 18.0909 28.9553 18.2557 27.8757 18.2557ZM47.1456 8.64205L43.8217 8.84659C43.7649 8.5625 43.6428 8.30682 43.4553 8.07955C43.2678 7.84659 43.0206 7.66193 42.7138 7.52557C42.4126 7.38352 42.0518 7.3125 41.6314 7.3125C41.0689 7.3125 40.5945 7.43182 40.2081 7.67045C39.8217 7.90341 39.6286 8.21591 39.6286 8.60795C39.6286 8.92045 39.7536 9.18466 40.0036 9.40057C40.2536 9.61648 40.6825 9.78977 41.2905 9.92045L43.6598 10.3977C44.9325 10.6591 45.8814 11.0795 46.5064 11.6591C47.1314 12.2386 47.4439 13 47.4439 13.9432C47.4439 14.8011 47.1911 15.554 46.6854 16.2017C46.1854 16.8494 45.4979 17.3551 44.6229 17.7188C43.7536 18.0767 42.7507 18.2557 41.6143 18.2557C39.8814 18.2557 38.5007 17.8949 37.4723 17.1733C36.4496 16.446 35.8501 15.4574 35.674 14.2074L39.245 14.0199C39.353 14.5483 39.6143 14.9517 40.0291 15.2301C40.4439 15.5028 40.9751 15.6392 41.6229 15.6392C42.2592 15.6392 42.7706 15.517 43.157 15.2727C43.549 15.0227 43.7479 14.7017 43.7536 14.3097C43.7479 13.9801 43.6087 13.7102 43.3359 13.5C43.0632 13.2841 42.6428 13.1193 42.0746 13.0057L39.8075 12.554C38.5291 12.2983 37.5774 11.8551 36.9524 11.2244C36.3331 10.5937 36.0234 9.78977 36.0234 8.8125C36.0234 7.97159 36.2507 7.24716 36.7053 6.6392C37.1655 6.03125 37.8104 5.5625 38.6399 5.23295C39.4751 4.90341 40.4524 4.73864 41.5717 4.73864C43.2251 4.73864 44.5263 5.08807 45.4751 5.78693C46.4297 6.4858 46.9865 7.4375 47.1456 8.64205ZM60.6222 8.64205L57.2983 8.84659C57.2415 8.5625 57.1193 8.30682 56.9318 8.07955C56.7443 7.84659 56.4972 7.66193 56.1903 7.52557C55.8892 7.38352 55.5284 7.3125 55.108 7.3125C54.5455 7.3125 54.071 7.43182 53.6847 7.67045C53.2983 7.90341 53.1051 8.21591 53.1051 8.60795C53.1051 8.92045 53.2301 9.18466 53.4801 9.40057C53.7301 9.61648 54.1591 9.78977 54.767 9.92045L57.1364 10.3977C58.4091 10.6591 59.358 11.0795 59.983 11.6591C60.608 12.2386 60.9205 13 60.9205 13.9432C60.9205 14.8011 60.6676 15.554 60.1619 16.2017C59.6619 16.8494 58.9744 17.3551 58.0994 17.7188C57.2301 18.0767 56.2273 18.2557 55.0909 18.2557C53.358 18.2557 51.9773 17.8949 50.9489 17.1733C49.9261 16.446 49.3267 15.4574 49.1506 14.2074L52.7216 14.0199C52.8295 14.5483 53.0909 14.9517 53.5057 15.2301C53.9205 15.5028 54.4517 15.6392 55.0994 15.6392C55.7358 15.6392 56.2472 15.517 56.6335 15.2727C57.0256 15.0227 57.2244 14.7017 57.2301 14.3097C57.2244 13.9801 57.0852 13.7102 56.8125 13.5C56.5398 13.2841 56.1193 13.1193 55.5511 13.0057L53.2841 12.554C52.0057 12.2983 51.054 11.8551 50.429 11.2244C49.8097 10.5937 49.5 9.78977 49.5 8.8125C49.5 7.97159 49.7273 7.24716 50.1818 6.6392C50.642 6.03125 51.2869 5.5625 52.1165 5.23295C52.9517 4.90341 53.929 4.73864 55.0483 4.73864C56.7017 4.73864 58.0028 5.08807 58.9517 5.78693C59.9063 6.4858 60.4631 7.4375 60.6222 8.64205ZM66.9396 18.2472C66.1044 18.2472 65.3601 18.1023 64.7067 17.8125C64.0533 17.517 63.5362 17.0824 63.1555 16.5085C62.7805 15.929 62.593 15.2074 62.593 14.3438C62.593 13.6165 62.7266 13.0057 62.9936 12.5114C63.2607 12.017 63.6243 11.6193 64.0845 11.3182C64.5447 11.017 65.0675 10.7898 65.6527 10.6364C66.2436 10.483 66.8629 10.375 67.5107 10.3125C68.272 10.233 68.8857 10.1591 69.3516 10.0909C69.8175 10.017 70.1555 9.90909 70.3658 9.76705C70.576 9.625 70.6811 9.41477 70.6811 9.13636V9.08523C70.6811 8.54545 70.5107 8.12784 70.1697 7.83239C69.8345 7.53693 69.3572 7.3892 68.7379 7.3892C68.0845 7.3892 67.5646 7.53409 67.1783 7.82386C66.7919 8.10795 66.5362 8.46591 66.4112 8.89773L63.0533 8.625C63.2237 7.82955 63.5589 7.14205 64.0589 6.5625C64.5589 5.97727 65.2038 5.52841 65.9936 5.21591C66.7891 4.89773 67.7095 4.73864 68.755 4.73864C69.4822 4.73864 70.1783 4.82386 70.843 4.99432C71.5135 5.16477 72.1072 5.42898 72.6243 5.78693C73.147 6.14489 73.5589 6.60511 73.8601 7.16761C74.1612 7.72443 74.3118 8.39205 74.3118 9.17045V18H70.8686V16.1847H70.7663C70.5561 16.5938 70.2749 16.9545 69.9226 17.267C69.5703 17.5739 69.147 17.8153 68.6527 17.9915C68.1584 18.1619 67.5874 18.2472 66.9396 18.2472ZM67.9794 15.7415C68.5135 15.7415 68.9851 15.6364 69.3942 15.4261C69.8033 15.2102 70.1243 14.9205 70.3572 14.5568C70.5902 14.1932 70.7067 13.7812 70.7067 13.321V11.9318C70.593 12.0057 70.4368 12.0739 70.2379 12.1364C70.0447 12.1932 69.826 12.2472 69.5817 12.2983C69.3374 12.3437 69.093 12.3864 68.8487 12.4261C68.6044 12.4602 68.3828 12.4915 68.1839 12.5199C67.7578 12.5824 67.3857 12.6818 67.0675 12.8182C66.7493 12.9545 66.5021 13.1392 66.326 13.3722C66.1499 13.5994 66.0618 13.8835 66.0618 14.2244C66.0618 14.7188 66.2408 15.0966 66.5987 15.358C66.9624 15.6136 67.4226 15.7415 67.9794 15.7415ZM83.0263 23.1818C81.8501 23.1818 80.8416 23.0199 80.0007 22.696C79.1655 22.3778 78.5007 21.9432 78.0064 21.392C77.5121 20.8409 77.1911 20.2216 77.0433 19.5341L80.4013 19.0824C80.5036 19.3438 80.6655 19.5881 80.8871 19.8153C81.1087 20.0426 81.4013 20.2244 81.7649 20.3608C82.1342 20.5028 82.5831 20.5739 83.1115 20.5739C83.9013 20.5739 84.5518 20.3807 85.0632 19.9943C85.5803 19.6136 85.8388 18.9744 85.8388 18.0767V15.6818H85.6854C85.5263 16.0455 85.2876 16.3892 84.9695 16.7131C84.6513 17.0369 84.2422 17.3011 83.7422 17.5057C83.2422 17.7102 82.6456 17.8125 81.9524 17.8125C80.9695 17.8125 80.0746 17.5852 79.2678 17.1307C78.4666 16.6705 77.8274 15.9687 77.3501 15.0256C76.8786 14.0767 76.6428 12.8778 76.6428 11.429C76.6428 9.94602 76.8842 8.70739 77.3672 7.71307C77.8501 6.71875 78.4922 5.97443 79.2933 5.48011C80.1001 4.9858 80.9837 4.73864 81.9439 4.73864C82.6768 4.73864 83.2905 4.86364 83.7848 5.11364C84.2791 5.35795 84.6768 5.66477 84.978 6.03409C85.2848 6.39773 85.5206 6.75568 85.6854 7.10795H85.8217V4.90909H89.4268V18.1278C89.4268 19.2415 89.1541 20.1733 88.6087 20.9233C88.0632 21.6733 87.3075 22.2358 86.3416 22.6108C85.3814 22.9915 84.2763 23.1818 83.0263 23.1818ZM83.103 15.0852C83.6882 15.0852 84.1825 14.9403 84.5859 14.6506C84.995 14.3551 85.3075 13.9347 85.5234 13.3892C85.745 12.8381 85.8558 12.179 85.8558 11.4119C85.8558 10.6449 85.7479 9.98011 85.532 9.41761C85.3161 8.84943 85.0036 8.40909 84.5945 8.09659C84.1854 7.78409 83.6882 7.62784 83.103 7.62784C82.5064 7.62784 82.0036 7.78977 81.5945 8.11364C81.1854 8.43182 80.8757 8.875 80.6655 9.44318C80.4553 10.0114 80.3501 10.6676 80.3501 11.4119C80.3501 12.1676 80.4553 12.821 80.6655 13.3722C80.8814 13.9176 81.1911 14.3409 81.5945 14.642C82.0036 14.9375 82.5064 15.0852 83.103 15.0852ZM98.282 18.2557C96.9354 18.2557 95.7763 17.983 94.8047 17.4375C93.8388 16.8864 93.0945 16.108 92.5717 15.1023C92.049 14.0909 91.7876 12.8949 91.7876 11.5142C91.7876 10.1676 92.049 8.9858 92.5717 7.96875C93.0945 6.9517 93.8303 6.15909 94.7791 5.59091C95.7337 5.02273 96.853 4.73864 98.1371 4.73864C99.0007 4.73864 99.8047 4.87784 100.549 5.15625C101.299 5.42898 101.952 5.84091 102.509 6.39205C103.072 6.94318 103.509 7.63636 103.822 8.47159C104.134 9.30114 104.29 10.2727 104.29 11.3864V12.3835H93.2365V10.1335H100.873C100.873 9.6108 100.759 9.14773 100.532 8.74432C100.305 8.34091 99.9893 8.02557 99.5859 7.7983C99.1882 7.56534 98.7251 7.44886 98.1967 7.44886C97.6456 7.44886 97.157 7.5767 96.7308 7.83239C96.3104 8.08239 95.9808 8.42045 95.7422 8.84659C95.5036 9.26705 95.3814 9.7358 95.3757 10.2528V12.392C95.3757 13.0398 95.495 13.5994 95.7337 14.071C95.978 14.5426 96.3217 14.9062 96.7649 15.1619C97.2081 15.4176 97.7337 15.5455 98.3416 15.5455C98.745 15.5455 99.1143 15.4886 99.4496 15.375C99.7848 15.2614 100.072 15.0909 100.31 14.8636C100.549 14.6364 100.731 14.358 100.856 14.0284L104.214 14.25C104.043 15.0568 103.694 15.7614 103.165 16.3636C102.643 16.9602 101.967 17.4261 101.137 17.7614C100.313 18.0909 99.3615 18.2557 98.282 18.2557ZM117.552 8.64205L114.228 8.84659C114.171 8.5625 114.049 8.30682 113.862 8.07955C113.674 7.84659 113.427 7.66193 113.12 7.52557C112.819 7.38352 112.458 7.3125 112.038 7.3125C111.475 7.3125 111.001 7.43182 110.614 7.67045C110.228 7.90341 110.035 8.21591 110.035 8.60795C110.035 8.92045 110.16 9.18466 110.41 9.40057C110.66 9.61648 111.089 9.78977 111.697 9.92045L114.066 10.3977C115.339 10.6591 116.288 11.0795 116.913 11.6591C117.538 12.2386 117.85 13 117.85 13.9432C117.85 14.8011 117.597 15.554 117.092 16.2017C116.592 16.8494 115.904 17.3551 115.029 17.7188C114.16 18.0767 113.157 18.2557 112.021 18.2557C110.288 18.2557 108.907 17.8949 107.879 17.1733C106.856 16.446 106.256 15.4574 106.08 14.2074L109.651 14.0199C109.759 14.5483 110.021 14.9517 110.435 15.2301C110.85 15.5028 111.381 15.6392 112.029 15.6392C112.665 15.6392 113.177 15.517 113.563 15.2727C113.955 15.0227 114.154 14.7017 114.16 14.3097C114.154 13.9801 114.015 13.7102 113.742 13.5C113.469 13.2841 113.049 13.1193 112.481 13.0057L110.214 12.554C108.935 12.2983 107.984 11.8551 107.359 11.2244C106.739 10.5937 106.43 9.78977 106.43 8.8125C106.43 7.97159 106.657 7.24716 107.112 6.6392C107.572 6.03125 108.217 5.5625 109.046 5.23295C109.881 4.90341 110.859 4.73864 111.978 4.73864C113.631 4.73864 114.933 5.08807 115.881 5.78693C116.836 6.4858 117.393 7.4375 117.552 8.64205Z" fill="#333333"/>
</svg>
